<?xml version="1.0" encoding="UTF-8" standalone="no"?><!DOCTYPE svg PUBLIC "-//W3C//DTD SVG 1.1//EN" "http://www.w3.org/Graphics/SVG/1.1/DTD/svg11.dtd"><svg width="100%" height="100%" viewBox="0 0 34492 6259" version="1.1" xmlns="http://www.w3.org/2000/svg" xmlns:xlink="http://www.w3.org/1999/xlink" xml:space="preserve" xmlns:serif="http://www.serif.com/" style="fill-rule:evenodd;clip-rule:evenodd;stroke-linejoin:round;stroke-miterlimit:2;"><path d="M8.332,1087.5l812.502,0l0,520.833c105.305,-99.334 220.97,-185.795 345.831,-258.333c89.724,-52.124 186.806,-97.982 291.667,-137.5c120.356,-45.358 243.079,-78.771 366.667,-100c216.308,-37.156 434.908,-37.838 645.833,-4.167c225.74,36.036 442.79,110.823 641.666,220.833c233.838,129.349 418.461,288.764 558.336,462.5c81.916,101.749 153.139,213.226 212.498,333.333c95.02,192.259 155.105,398.84 179.169,612.5l4.165,2512.5l-812.5,0l0,-2325c0.845,-23.677 0.843,-47.015 0,-70.833c-1.787,-50.508 -7.298,-102.753 -16.667,-150c-22.96,-115.808 -79.728,-235.618 -166.667,-350c-54.602,-71.84 -124.955,-142.273 -220.833,-212.5c-150.643,-110.344 -346.522,-196.033 -591.667,-233.334c-73.273,-11.149 -149.716,-16.713 -229.165,-16.666c-110.686,0.063 -209.466,10.028 -300.002,29.167c-174.487,36.884 -334.429,106.154 -470.834,200c-117.811,81.055 -203.504,167.096 -258.332,241.667c-52.289,71.112 -92.31,145.335 -120.833,220.833c-41.228,109.127 -60.769,224.758 -58.333,341.667l0,2325l-812.502,0l0,-4162.5Zm4758.335,-0l745.832,0l4.167,2325c-4.356,62.704 -1.589,125.431 8.332,187.5c8.032,50.25 21.661,102.527 41.668,158.333c18.488,51.573 40.79,100.315 66.665,145.833c37.97,66.795 91.944,138.021 166.665,212.5c58.489,58.299 118.132,106.476 179.169,145.834c75.882,48.932 169.29,93.136 287.5,129.167c106.962,32.603 216.098,50.604 324.999,54.167c76.544,2.502 150.123,-1.766 220.833,-12.5c101.985,-15.482 202.749,-44.649 300.002,-87.5c116.025,-51.121 210.173,-112.026 287.498,-179.167c132.764,-115.275 213.532,-234.005 262.503,-345.833c38.887,-88.806 64.897,-188.729 75,-295.833c3.534,-37.5 4.922,-75.014 4.165,-112.5l0,-2325l745.834,0l0,4162.5l-745.834,0l0,-520.833c-54.813,60.62 -114.6,116.266 -179.166,166.667c-56.797,44.338 -131.793,92.253 -212.5,137.5c-85.417,47.888 -170.026,89.522 -241.667,116.667c-102.088,38.682 -219.102,68.26 -358.333,87.5c-143.542,19.836 -270.402,22.947 -387.501,12.5c-131.692,-11.749 -271.035,-41.978 -420.831,-95.833c-92.088,-33.108 -174.781,-70.412 -250.001,-112.5c-87.74,-49.092 -175.665,-110.545 -266.666,-187.5c-50.389,-42.613 -99.004,-88.45 -145.833,-137.5c-85.892,-89.962 -159.42,-183.219 -220.833,-279.167c-74.206,-115.924 -137.338,-246.116 -187.501,-391.667c-63.582,-184.481 -98.437,-377.781 -104.166,-575l0,-2383.333Zm4666.664,-320.833l812.502,-762.5l0,1070.833l1349.999,0l0,779.166l-1349.999,0l0,2129.167c1.322,20.982 4.097,41.831 8.332,62.5c6.11,29.826 15.914,60.83 29.167,91.667c33.652,78.31 93.322,153.737 158.334,212.5c56.775,51.321 144.235,108.502 258.332,154.167c72.734,29.109 159.556,51.945 262.503,66.666c52.126,7.455 101.991,11.621 149.998,12.5c91.679,1.676 177.709,-6.962 258.334,-25c16.94,-3.79 33.358,-7.894 50.001,-12.5l462.499,595.833c-44.102,15.637 -88.094,29.384 -133.333,41.667c-45.548,12.366 -94.603,23.501 -145.835,33.334c-67.996,13.051 -135.936,22.756 -204.166,29.167c-44.444,4.175 -88.281,6.911 -133.333,8.333c-33.087,1.044 -90.518,0.372 -137.5,0c-49.335,-0.391 -100.97,-1.003 -141.665,-4.167c-29.179,-2.268 -71.057,-7.564 -108.336,-12.5c-48.878,-6.472 -106.535,-14.313 -141.665,-20.833c-45.702,-8.482 -95.351,-19.942 -145.833,-33.334c-78.283,-20.766 -151.828,-44.328 -220.835,-70.833c-76.727,-29.472 -147.375,-61.304 -212.5,-95.833c-93.875,-49.774 -179.96,-105.404 -258.334,-166.667c-59.227,-46.297 -110.803,-92.169 -154.165,-137.5c-48.956,-51.178 -91.928,-103.931 -129.166,-158.333c-55.369,-80.882 -94.533,-155.654 -120.833,-225c-26.665,-70.302 -44.641,-141.486 -54.168,-212.5c-5.201,-38.763 -7.977,-77.671 -8.334,-116.666l0,-3233.333Zm3037.501,329.166l812.5,0l0,600c30.93,-31.856 62.531,-62.081 95.834,-91.667c58.773,-52.217 125.003,-103.227 199.999,-154.167c70.376,-47.8 142.628,-90.868 216.67,-129.167c78.777,-40.751 153.24,-73.89 224.998,-100c72.416,-26.348 158.552,-50.36 250.001,-70.833c78.413,-17.556 154.593,-30.818 220.833,-37.5c45.017,-4.541 100.053,-7.284 154.167,-8.333c79.671,-1.543 161.568,1.244 245.834,8.333c49.752,4.186 100.659,9.94 141.665,16.667c52.013,8.533 103.416,19.647 154.167,33.333l-83.334,804.167c-9.716,-4.35 -19.284,-8.451 -29.167,-12.5c-47.84,-19.607 -99.611,-35.944 -158.332,-50c-48.693,-11.656 -106.849,-21.57 -166.669,-29.167c-53.343,-6.775 -108.683,-11.936 -149.998,-12.5c-55.003,-0.749 -114.107,3.369 -179.169,12.5c-64.057,8.988 -128.006,22.878 -191.664,41.667c-60.465,17.847 -122.591,41.317 -187.501,70.833c-58.38,26.548 -111.96,54.563 -158.334,83.333c-103.482,64.201 -203.426,149.648 -295.833,258.333c-102.409,120.445 -176.171,247.414 -225.002,375c-53.161,138.91 -78.692,260.106 -79.165,350c-0.012,2.283 -0.006,5.542 0,8.333c0.158,63.489 0,362.5 0,362.5l0,1820.833l-812.5,0l0,-4150Zm2962.499,2050c5.386,-476.469 175.618,-1023.537 591.669,-1445.834c358.81,-364.202 889.449,-630.743 1495.832,-612.5c503.96,15.162 980.873,223.294 1341.667,575l0,-562.5l812.498,0l0,4154.167l-812.498,0l0,-579.167c-37.322,37.771 -75.962,73.653 -116.666,108.333c-218.559,186.214 -485.18,323.586 -775.001,400c-172.255,45.416 -342.61,66.968 -508.333,66.667c-221.616,-0.403 -452.518,-40.08 -683.334,-125c-282.25,-103.845 -537.181,-267.896 -745.832,-479.166c-195.669,-198.124 -360.313,-450.311 -470.834,-754.167c-89.241,-245.345 -131.962,-498.743 -129.168,-745.833Zm825,-70.833c17.713,-217.36 83.947,-419.757 183.336,-587.5c56.035,-94.576 123.189,-181.193 199.999,-258.333c118.449,-118.96 254.629,-211.326 400.001,-275c161.669,-70.813 340.2,-108.604 524.998,-108.333c192.227,0.281 382.861,42.957 558.336,125c187.585,87.708 351.865,217.517 479.164,379.166c133.306,169.273 223.614,371.133 262.501,587.5c46.654,259.576 15.119,527.932 -87.5,766.667c-54.567,126.947 -129.238,245.237 -220.833,350c-81.626,93.357 -175.474,174.552 -279.166,241.667c-102.141,66.109 -208.493,115.853 -316.667,150c-105.548,33.317 -215.95,53.072 -329.168,58.333c-82.829,3.849 -166.389,-0.273 -249.999,-12.5c-164.545,-24.062 -318.231,-77.474 -454.167,-154.167c-105.916,-59.755 -207.054,-137.256 -300.002,-233.333c-76.53,-79.11 -141.996,-165.77 -195.831,-258.333c-64.379,-110.695 -111.87,-228.554 -141.668,-350c-22.839,-93.091 -35.371,-188.005 -37.499,-283.334c-1.009,-45.148 0.38,-91.036 4.165,-137.5Zm4116.667,-1975l870.835,0l1258.332,3320.833l1258.332,-3320.833l866.668,-0l-1583.334,4179.167l-1087.5,0l-1583.334,-4179.167Zm5300,1937.5l2650.002,-454.167c-67.138,-182.794 -172,-348.859 -308.334,-487.5c-154.391,-157.002 -344.614,-274.512 -554.166,-341.667c-227.946,-73.049 -471.22,-83.872 -704.166,-33.333c-189.884,41.197 -370.549,123.427 -529.167,241.667c-138.738,103.416 -261.516,236.639 -358.335,395.833c-89.695,147.484 -143.312,290.021 -170.834,425c-14.876,72.976 -23.188,146.698 -24.999,220.833l0,33.334Zm87.502,537.5l3341.666,-562.5c-2.128,-70.998 -7.67,-141.724 -16.667,-212.5c-27.142,-213.528 -85.02,-422.681 -170.834,-616.667c-143.528,-324.451 -359.39,-602.745 -620.834,-812.5c-276.456,-221.8 -594.971,-367.539 -924.999,-429.167c-267.941,-50.034 -545.698,-46.13 -816.667,12.5c-272.466,58.954 -535.629,174.253 -770.834,341.667c-409.59,291.536 -689.251,715.945 -820.832,1166.667c-103.225,353.581 -114.559,730.013 -37.501,1087.5c46.931,217.716 125.062,422.534 229.167,608.333c84.885,151.497 185.743,289.764 300,412.5c252.195,270.911 572.4,474.439 924.999,583.334c323.208,99.817 659.229,120.048 979.167,62.5c284.83,-51.233 568.498,-166.891 829.169,-350c187.092,-131.425 351.047,-291.5 487.501,-475l-637.503,-358.333c-25.602,26.05 -51.684,50.761 -79.165,75c-56.347,49.701 -114.816,94.258 -175.001,133.333c-104.705,67.981 -205.714,116.616 -304.167,150c-93.314,31.643 -191.074,52.747 -291.665,62.5c-61.312,5.945 -127.461,7.283 -200.001,4.167c-71.182,-3.058 -135.903,-9.918 -195.833,-20.833c-81.17,-14.783 -160.643,-37.085 -237.5,-66.667c-108.391,-41.72 -214.809,-99.813 -316.667,-175c-115.12,-84.975 -217.919,-188.645 -304.167,-308.333c-65.379,-90.729 -119.551,-188.599 -161.86,-292.243c-1.62,-3.965 -3.222,-7.941 -4.807,-11.924l-4.165,-8.333Zm6820.833,-2433.333l712.499,0l0,3425c2.658,126.28 -11.204,252.026 -41.666,375c-30.044,121.293 -79.227,246.83 -154.167,379.167c-186.115,328.662 -481.391,577.899 -795.833,729.166c-136.894,65.857 -287.132,116.707 -450,150c-200.177,40.92 -403.741,50.488 -604.167,29.167c-205.938,-21.908 -408.346,-76.42 -600,-162.5c-215.163,-96.639 -387.353,-215.257 -525,-345.833c-73.168,-69.409 -139.889,-144.533 -199.999,-225l362.498,-491.667c13.776,18.479 27.45,36.257 41.666,54.167c22.614,28.491 48.634,60.055 66.668,79.167c28.102,29.781 59.908,58.812 95.834,87.5c24.43,19.511 55.761,41.667 87.5,62.5c35.782,23.491 71.776,45.217 104.164,62.5c71.577,38.196 136.964,65.08 200.003,83.333c23.404,6.777 57.056,14.065 87.5,20.833c53.274,11.845 117.269,27.417 154.167,33.333c66.575,10.675 136.014,16.25 208.333,16.667c71.976,0.415 146.745,-5.09 225,-16.667c76.026,-11.247 144.84,-26.402 208.333,-45.833c48.432,-14.821 97.047,-32.881 145.833,-54.167c57.63,-25.14 108.907,-51.406 154.167,-79.167c49.939,-30.628 94.052,-62.376 133.333,-95.833c40.137,-34.186 77.705,-71.733 112.501,-112.5c29.241,-34.263 54.04,-67.31 75,-100c25.727,-40.129 46.337,-78.699 62.5,-116.667c23.873,-56.085 40.727,-114.921 49.999,-175c5.763,-37.325 8.517,-73.37 8.334,-108.333c-0.123,-23.242 -1.515,-46.855 -4.167,-70.833c-4.048,-36.568 -11.003,-72.711 -20.834,-108.333l-12.5,8.333c-39.401,30.64 -79.182,59.446 -120.831,87.5c-38.523,25.946 -79.661,52.15 -112.501,70.833c-81.174,46.177 -178.186,87.976 -291.667,125c-55.852,18.223 -111.286,33.473 -166.667,45.833c-76.297,17.029 -147.165,28.245 -212.498,33.333c-30.643,2.387 -76.137,3.666 -116.668,4.167c-60.027,0.74 -120.258,-0.505 -170.834,-4.167c-29.966,-2.169 -57.544,-6.004 -87.5,-8.333c-27.756,-2.159 -52.653,-4.193 -79.167,-8.333c-26.49,-4.136 -51.705,-9.828 -79.167,-16.666c-33.959,-8.458 -81.661,-19.861 -99.999,-25c-43.496,-12.191 -86.137,-25.95 -129.166,-41.667c-56.041,-20.469 -108.763,-42.651 -158.334,-66.667c-48.107,-23.307 -93.914,-48.287 -137.5,-75c-29.713,-18.213 -65.921,-42.592 -99.999,-66.667c-35.618,-25.163 -73.481,-53.186 -99.999,-75c-39.9,-32.817 -82.489,-72.797 -125.001,-116.667c-35.893,-37.04 -69.061,-74.337 -99.999,-112.5c-38.745,-47.786 -74.868,-97.802 -108.334,-150c-34.304,-53.505 -63.802,-105.267 -87.5,-154.167c-17.043,-35.166 -34.039,-75.055 -50.001,-116.666c-21.325,-55.599 -39.384,-111.165 -54.168,-166.667c-24.689,-92.714 -39.528,-175.95 -45.831,-254.167c-3.032,-37.628 -4.414,-74.904 -4.167,-112.5l0,-2083.333l712.499,-0l0,2020.833c-2.479,44.656 -1.096,89.158 4.167,133.334c3.766,31.616 9.323,62.17 16.667,91.667c9.722,39.04 23.462,79.014 41.666,120.833c24.364,55.961 53.79,107.542 87.502,154.167c36.031,49.835 83.741,101.326 145.833,154.167c60.011,51.07 129.067,97.156 208.333,137.5c65.204,33.189 136.955,61.031 216.667,83.333c63.738,17.832 144.303,31.844 229.167,41.667c49.145,5.689 94.588,8.61 137.5,8.333c28.476,-0.183 57.451,-1.579 87.498,-4.167c22.695,-1.955 46.46,-4.787 70.835,-8.333c45.605,-6.637 88.745,-14.959 129.168,-25c67.51,-16.77 133.01,-39.124 195.833,-66.667c85.758,-37.6 156.879,-78.77 212.498,-120.833c32.894,-24.876 64.84,-52.653 95.832,-83.333c54.417,-53.866 100.19,-111.051 137.5,-170.833c26.739,-42.841 47.312,-82.743 62.502,-120.833c12.868,-32.265 23.875,-68.069 33.332,-108.333c9.539,-40.607 16.463,-87.075 20.834,-137.5c3.23,-37.293 4.617,-74.764 4.167,-112.5l0,-1987.5Zm825,-200l0,-708.333l-170.834,0l0,-33.333l379.167,0l0,33.333l-170.832,0l0,708.333l-37.501,0Zm308.334,0l0,-741.667l54.166,0l329.166,679.167l333.334,-679.167l50.001,-0l0,741.667l-37.501,-0l0,-679.166l-345.833,691.667l-341.666,-704.167l0,691.667l-41.666,0Z" style="fill:#fff;stroke:#000;stroke-width:4.17px;"/></svg>