<svg xmlns="http://www.w3.org/2000/svg" viewBox="0 0 8278 1502" fill="currentColor"><path fill-rule="evenodd" d="    M 1.9997795820236206,260.99995946884155    C 1.9997795820236206,260.99995946884155 197.00024545192719,260.99995946884155 197.00024545192719,260.99995946884155    C 197.00024545192719,260.99995946884155 197.00024545192719,385.99998807907104 197.00024545192719,385.99998807907104    C 222.2735515832901,362.1598834991455 250.033136844635,341.40914821624756 279.9997327327728,323.9999774694443    C 301.533505320549,311.490216255188 324.8331824541092,300.48440527915955 349.99991261959076,291.0000021457672    C 378.88545322418213,280.1139771938324 408.33890557289124,272.0949385166168 438.0000823736191,267.00000381469727    C 489.91392612457275,258.082480430603 542.3779189586639,257.91891610622406 593.0000225305557,265.9999964237213    C 647.1776187419891,274.6486726999283 699.2695825099945,292.5974177122116 746.9998261928558,319.00003004074097    C 803.1209535598755,350.043679356575 847.4304047822952,388.3034965991974 881.0003538131714,430.0000447034836    C 900.6601656675339,454.4199208021164 917.7537664175034,481.17428147792816 931.999913930893,510.0000092983246    C 954.8047035932541,556.1420692205429 969.2250238656998,605.7216657400131 975.00035572052,657.0000214576721    C 975.00035572052,657.0000214576721 975.9999988079071,1260.0000019073486 975.9999988079071,1260.0000019073486    C 975.9999988079071,1260.0000019073486 781.000026345253,1260.0000019073486 781.000026345253,1260.0000019073486    C 781.000026345253,1260.0000019073486 781.000026345253,701.9999959468842 781.000026345253,701.9999959468842    C 781.2028167247772,696.3174114227295 781.2023233175278,690.7162957191467 781.000026345253,684.9999598264694    C 780.5712554454803,672.8779364824295 779.2484306097031,660.3393478393555 776.9999737739563,648.9999623298645    C 771.4896016120911,621.2060236930847 757.8651472330093,592.451648235321 736.9999414682388,564.9999681711197    C 723.8955383300781,547.7583009004593 707.0106488466263,530.8545054197311 684.0001083612442,514.0000388622284    C 647.8456921577454,487.5175691843033 600.8348362445831,466.9521530866623 541.9999690055847,457.9999830722809    C 524.4144412279129,455.3242247104645 506.06807947158813,453.9887627363205 487.00035631656647,454.0000430345535    C 460.4358034133911,454.015172958374 436.72857189178467,456.40677523612976 414.99990344047546,461.00000524520874    C 373.1229499578476,469.8520849943161 334.7368527650833,486.4770064353943 301.9997751712799,509.00000190734863    C 273.7250727415085,528.4531447887421 253.1588717699051,549.1029840707779 240.0001938343048,566.9999829530716    C 227.45087385177612,584.0668951272964 217.84571492671967,601.8803660869598 211.00018274784088,620.0000165700912    C 201.10539376735687,646.1904518604279 196.41555786132812,673.9418655633926 197.00024545192719,701.9999959468842    C 197.00024545192719,701.9999959468842 197.00024545192719,1260.0000019073486 197.00024545192719,1260.0000019073486    C 197.00024545192719,1260.0000019073486 1.9997795820236206,1260.0000019073486 1.9997795820236206,1260.0000019073486    C 1.9997795820236206,1260.0000019073486 1.9997795820236206,260.99995946884155 1.9997795820236206,260.99995946884155    Z    M 1144.0002331733704,260.99995946884155    C 1144.0002331733704,260.99995946884155 1322.9999953508377,260.99995946884155 1322.9999953508377,260.99995946884155    C 1322.9999953508377,260.99995946884155 1324.0001318454742,818.999965429306 1324.0001318454742,818.999965429306    C 1322.9546018838882,834.048868060112 1323.6187280416489,849.1035003662109 1325.9999114274979,864.0000294446945    C 1327.9276535511017,876.0601006746292 1331.1984502077103,888.6064780950546 1336.0002895593643,902.0000417232513    C 1340.4375009536743,914.3774832487106 1345.7899827957153,926.0756896734238 1352.0000064373016,937.0000318288803    C 1361.1127449274063,953.0307680368423 1374.0666588544846,970.1249856948853 1391.9995453357697,987.9999611377716    C 1406.0369815826416,1001.9917386770248 1420.3512192964554,1013.5542234182358 1434.9999871253967,1023.000040769577    C 1453.2116487026215,1034.7436369657516 1475.6296070814133,1045.3525784015656 1504.0000305175781,1054.0000013113022    C 1529.6710228919983,1061.824678659439 1555.8635467290878,1066.1450328826904 1581.99982213974,1067.000007867813    C 1600.3703608512878,1067.6005494594574 1618.0294063091278,1066.5761909484863 1634.9996552467346,1063.9999856948853    C 1659.4761086702347,1060.2842017412186 1683.659478187561,1053.284150004387 1707.0001081228256,1043.0000095367432    C 1734.8460396528244,1030.730984210968 1757.4416246414185,1016.1137768030167 1775.9996581077576,999.9999603033066    C 1807.8629114627838,972.3339545726776 1827.2474020719528,943.8388469219208 1839.000362753868,916.9999735355377    C 1848.3331608772278,895.686566233635 1854.5757493972778,871.7050998210907 1857.0003526210785,845.9999859333038    C 1857.8485196828842,837.0000089406967 1858.1815695762634,827.996540427208 1857.9999957084656,818.999965429306    C 1857.9999957084656,818.999965429306 1857.9999957084656,260.99995946884155 1857.9999957084656,260.99995946884155    C 1857.9999957084656,260.99995946884155 2037.0002512931824,260.99995946884155 2037.0002512931824,260.99995946884155    C 2037.0002512931824,260.99995946884155 2037.0002512931824,1260.0000019073486 2037.0002512931824,1260.0000019073486    C 2037.0002512931824,1260.0000019073486 1857.9999957084656,1260.0000019073486 1857.9999957084656,1260.0000019073486    C 1857.9999957084656,1260.0000019073486 1857.9999957084656,1134.9999732971191 1857.9999957084656,1134.9999732971191    C 1844.8447716236115,1149.5488722324371 1830.4959954023361,1162.9038500785828 1815.000047326088,1175.0000003576279    C 1801.368685245514,1185.6410816907883 1783.3696821928024,1197.140629529953 1763.999993801117,1207.999975681305    C 1743.49990940094,1219.4931671619415 1723.193734049797,1229.4853627681732 1705.999971628189,1236.0000035762787    C 1681.4988478422165,1245.2836890220642 1653.415587425232,1252.3823090791702 1620.0000748634338,1256.9999797344208    C 1585.5498872995377,1261.7607132196426 1555.1036995649338,1262.5073615312576 1526.9997160434723,1260.0000019073486    C 1495.3935278654099,1257.18019592762 1461.9513713121414,1249.9252631664276 1426.0002388954163,1237.0000109672546    C 1403.8990479707718,1229.0542047023773 1384.052728176117,1220.101049900055 1365.9999437332153,1209.9999904632568    C 1344.942309141159,1198.2178084850311 1323.8402678966522,1183.4692661762238 1302.0000894069672,1165.0000159740448    C 1289.906677722931,1154.7729932069778 1278.2390764951706,1143.7720166444778 1267.000246167183,1132.0000406503677    C 1246.3861846923828,1110.4091917276382 1228.7394744157791,1088.0273790359497 1214.0004130601883,1064.9999930858612    C 1196.1908783912659,1037.1782118082047 1181.0393285751343,1005.9321438074112 1169.0001916885376,971.0000145435333    C 1153.7405856847763,926.7245754003525 1145.3753591775894,880.3325583934784 1144.0002331733704,832.9999793767929    C 1144.0002331733704,832.9999793767929 1144.0002331733704,260.99995946884155 1144.0002331733704,260.99995946884155    Z    M 2263.999657511711,184.0000170469284    C 2263.999657511711,184.0000170469284 2459.0001233816147,1.0000073909759521 2459.0001233816147,1.0000073909759521    C 2459.0001233816147,1.0000073909759521 2459.0001233816147,258.00002682209015 2459.0001233816147,258.00002682209015    C 2459.0001233816147,258.00002682209015 2782.9999409914017,258.00002682209015 2782.9999409914017,258.00002682209015    C 2782.9999409914017,258.00002682209015 2782.9999409914017,444.99997651576996 2782.9999409914017,444.99997651576996    C 2782.9999409914017,444.99997651576996 2459.0001233816147,444.99997651576996 2459.0001233816147,444.99997651576996    C 2459.0001233816147,444.99997651576996 2459.0001233816147,955.9999932050705 2459.0001233816147,955.9999932050705    C 2459.3173842430115,961.0356615781784 2459.98348402977,966.0395481586456 2460.9999029636383,971.0000145435333    C 2462.4663093090057,978.1581695079803 2464.819368481636,985.5991376638412 2467.999871611595,992.9999980926514    C 2476.0764548778534,1011.7944073677063 2490.39710688591,1029.8969583511353 2506.000124335289,1044.0000169277191    C 2519.626058936119,1056.3169387578964 2540.61659014225,1070.0404958724976 2567.999705672264,1081.0000218153    C 2585.45596075058,1087.986286520958 2606.2930423021317,1093.466810464859 2631.0004103183746,1096.9999610185623    C 2643.5107511281967,1098.7890521287918 2655.478343963623,1099.7890595197678 2666.999896645546,1099.9999831914902    C 2689.0028995275497,1100.4023138284683 2709.650019288063,1098.3290666341782 2728.9999713897705,1094.000028371811    C 2733.065647125244,1093.0903528928757 2737.0059974193573,1092.1054754257202 2741.0001291036606,1091.000006198883    C 2741.0001291036606,1091.000006198883 2851.999984383583,1233.9999887943268 2851.999984383583,1233.9999887943268    C 2841.415412068367,1237.7529261112213 2830.8574837446213,1241.0522342920303 2820.000057220459,1243.9999731779099    C 2809.068619608879,1246.9677659273148 2797.2954292297363,1249.640122294426 2784.9997205734253,1252.0000323057175    C 2768.6807692050934,1255.1322846412659 2752.3751398324966,1257.4613976478577 2735.9999400377274,1258.9999945163727    C 2725.3334621191025,1260.0019714832306 2714.8125393390656,1260.6587355136871 2704.0000128746033,1261.0000092983246    C 2696.059116601944,1261.250503540039 2682.275785088539,1261.0893564224243 2670.9999492168427,1261.0000092983246    C 2659.1596554517746,1260.9062753915787 2646.7672389745712,1260.7592734098434 2637.000242471695,1260.0000019073486    C 2629.9973133802414,1259.4555932283401 2619.946607708931,1258.184590101242 2610.9996540546417,1256.9999797344208    C 2599.2688966989517,1255.446790099144 2585.4312903881073,1253.5649498701096 2576.999947309494,1252.0000323057175    C 2566.0315041542053,1249.9643861055374 2554.1157190799713,1247.213873386383 2542.00010406971,1243.9999731779099    C 2523.2121428251266,1239.016140460968 2505.5614852905273,1233.3613090515137 2488.9997775554657,1227.0000265836716    C 2470.5853255987167,1219.9267424345016 2453.6298788785934,1212.2871156930923 2437.9997240304947,1204.0000356435776    C 2415.4697622060776,1192.0541998147964 2394.809320449829,1178.7031611204147 2375.99964928627,1164.0000085830688    C 2361.7850798368454,1152.8886462450027 2349.406972169876,1141.879433274269 2339.0000264644623,1131.0000332593918    C 2327.250519633293,1118.7173104286194 2316.937321305275,1106.056608080864 2308.0002357959747,1093.000020980835    C 2294.711791753769,1073.5884182453156 2285.3123836517334,1055.6430752277374 2279.000224709511,1038.9999799728394    C 2272.6007326841354,1022.1274291276932 2268.2863796949387,1005.0434174537659 2265.999930500984,987.9999611377716    C 2264.751610159874,978.6967589855194 2264.0855103731155,969.35891020298 2263.999657511711,960.0000227689743    C 2263.999657511711,960.0000227689743 2263.999657511711,184.0000170469284 2263.999657511711,184.0000170469284    Z    M 2992.999987244606,262.99997425079346    C 2992.999987244606,262.99997425079346 3187.99995970726,262.99997425079346 3187.99995970726,262.99997425079346    C 3187.99995970726,262.99997425079346 3187.99995970726,406.99996423721313 3187.99995970726,406.99996423721313    C 3195.4232717752457,399.3545182943344 3203.007434606552,392.10057032108307 3211.0001386404037,384.9999806880951    C 3225.1056650877,372.46801698207855 3241.0007796287537,360.22558093070984 3258.999782681465,347.9999758005142    C 3275.890099644661,336.52809154987335 3293.230404019356,326.1916677951813 3311.000466108322,317.00001525878906    C 3329.9068450927734,307.21972811222076 3347.778055667877,299.2664016485214 3364.999942302704,293.0000169277191    C 3382.3797192573547,286.67651450634 3403.0524961948395,280.9135354757309 3425.000237464905,275.9999808073044    C 3443.8192833662033,271.78661036491394 3462.1024889945984,268.6037757396698 3478.0000705718994,267.00000381469727    C 3488.804209113121,265.91011214256287 3502.012721180916,265.2517366409302 3515.0001868009567,264.99998903274536    C 3534.121197938919,264.6296192407608 3553.7765691280365,265.2985588312149 3574.000345468521,267.00000381469727    C 3585.9408009052277,268.00466656684875 3598.1585512161255,269.3855183124542 3608.000052213669,271.0000333786011    C 3620.483255624771,273.0478551387787 3632.8199170827866,275.715287566185 3645.000168442726,279.00000298023224    C 3645.000168442726,279.00000298023224 3624.9999055862427,471.99999701976776 3624.9999055862427,471.99999701976776    C 3622.6680629253387,470.95603227615356 3620.3717455863953,469.9716919660568 3617.999936938286,468.9999748468399    C 3606.5183502435684,464.29438948631287 3594.0933688879013,460.3735010623932 3580.0001776218414,456.99997568130493    C 3568.313826918602,454.20264077186584 3554.356322646141,451.82321405410767 3539.9996519088745,450.0000134706497    C 3527.1972140073776,448.37403905391693 3513.915677666664,447.1352653503418 3504.000165581703,446.99999129772186    C 3490.7995480298996,446.8203122615814 3476.614583015442,447.8085917234421 3460.999723792076,450.0000134706497    C 3445.6261407136917,452.15723621845245 3430.2782148122787,455.4907433986664 3415.000352740288,459.9999978542328    C 3400.4887521266937,464.2831987142563 3385.5784784555435,469.9160066843033 3370.000131368637,477.0000339746475    C 3355.988845705986,483.3716119527817 3343.1296659708023,490.0952068567276 3331.9998786449432,497.00000274181366    C 3307.164224743843,512.4081739187241 3283.1777247190475,532.9154875278473 3261.000055670738,559.0000133514404    C 3236.4219603538513,587.9067623615265 3218.7190016508102,618.3794137239456 3206.9995926618576,648.9999623298645    C 3194.241068005562,682.3383466005325 3188.113443374634,711.4253118038177 3187.99995970726,732.9999564886093    C 3187.9969992637634,733.5478566884995 3187.998479485512,734.3300468921661 3187.99995970726,734.9999712705612    C 3188.037952065468,750.2373265028 3187.99995970726,821.9999876022339 3187.99995970726,821.9999876022339    C 3187.99995970726,821.9999876022339 3187.99995970726,1258.9999945163727 3187.99995970726,1258.9999945163727    C 3187.99995970726,1258.9999945163727 2992.999987244606,1258.9999945163727 2992.999987244606,1258.9999945163727    C 2992.999987244606,1258.9999945163727 2992.999987244606,262.99997425079346 2992.999987244606,262.99997425079346    Z    M 3703.999833703041,755.0000295639038    C 3705.292560696602,640.6474386453629 3746.148161172867,509.3510340452194 3846.00046646595,407.9999716281891    C 3932.114833712578,320.5915368795395 4059.4681788682938,256.6215922832489 4205.000127315521,260.99995946884155    C 4325.950526595116,264.6389299631119 4440.409660100937,314.59059727191925 4527.000165343285,398.99999463558197    C 4527.000165343285,398.99999463558197 4527.000165343285,263.9999816417694 4527.000165343285,263.9999816417694    C 4527.000165343285,263.9999816417694 4721.999644398689,263.9999816417694 4721.999644398689,263.9999816417694    C 4721.999644398689,263.9999816417694 4721.999644398689,1261.0000092983246 4721.999644398689,1261.0000092983246    C 4721.999644398689,1261.0000092983246 4527.000165343285,1261.0000092983246 4527.000165343285,1261.0000092983246    C 4527.000165343285,1261.0000092983246 4527.000165343285,1121.9999667406082 4527.000165343285,1121.9999667406082    C 4518.042850136757,1131.06493973732 4508.769260883331,1139.6767312288284 4499.000290751457,1147.99997985363    C 4446.546166062355,1192.6914471387863 4382.557166695595,1225.6606254577637 4313.000066518784,1243.9999731779099    C 4271.658953309059,1254.8998746871948 4230.773748397827,1260.072249531746 4191.0001900196075,1260.0000019073486    C 4137.812368750572,1259.9033136367798 4082.395826935768,1250.380861878395 4027.000008225441,1229.999959230423    C 3959.2601269483566,1205.0771250724792 3898.076641201973,1165.7050346136093 3848.0002460479736,1115.000004529953    C 3801.0397176742554,1067.4502350091934 3761.5251981019974,1006.9252576828003 3735.000117778778,934.0000096559525    C 3713.582295894623,875.11721098423 3703.3292932510376,814.3017212152481 3703.999833703041,755.0000295639038    Z    M 3901.9997222423553,737.9999934434891    C 3906.2509191036224,685.8335380554199 3922.147020459175,637.2583357095718 3946.000300526619,597.0000256299973    C 3959.448608517647,574.3017379045486 3975.5657563209534,553.51367020607 3993.9999445676804,535.0000150203705    C 4022.4276032447815,506.44966971874237 4055.110899448395,484.2817350625992 4090.000219464302,468.9999748468399    C 4128.800778746605,452.00486266613007 4171.648264288902,442.9350552558899 4215.999655127525,442.99996173381805    C 4262.134219765663,443.0673749446869 4307.886393785477,453.30952763557434 4350.000182747841,473.0000044107437    C 4395.020633816719,494.0498466491699 4434.447820305824,525.204060792923 4464.999597191811,563.9999607801437    C 4496.993110060692,604.625507235527 4518.667010307312,653.0717918872833 4527.999808430672,705.000018119812    C 4539.196699142456,767.298329949379 4531.628325343132,831.7036403417587 4506.999902486801,889.0000351667404    C 4493.903887271881,919.4673149585724 4475.982842564583,947.856960773468 4454.0000693798065,973.0000293254852    C 4434.409827947617,995.4057455062866 4411.886280417442,1014.8925502300262 4387.000298976898,1031.0000103712082    C 4362.48634660244,1046.8661974668503 4336.961896181107,1058.8046921491623 4311.00028693676,1067.000007867813    C 4285.668758749962,1074.9961278438568 4259.172296047211,1079.737344622612 4231.999865412712,1081.0000218153    C 4212.1209807395935,1081.9238424301147 4192.0664430856705,1080.934578180313 4172.000063657761,1077.9999996423721    C 4132.509227633476,1072.2251136302948 4095.6245687007904,1059.4062185287476 4062.9999879598618,1040.9999947547913    C 4037.580139875412,1026.658707022667 4013.3069702386856,1008.0585695505142 3990.9995350837708,985.0000284910202    C 3972.632450222969,966.0136750936508 3956.9203897714615,945.2153118848801 3944.000027537346,923.0000178813934    C 3928.5489795207977,896.4331250190735 3917.151272058487,868.1469714641571 3909.9998273849487,839.0000237226486    C 3904.518566250801,816.6582292318344 3901.5107556581497,793.8789203166962 3901.0000791549683,770.9999687671661    C 3900.757816195488,760.1645261049271 3901.0913594961166,749.1513739824295 3901.9997222423553,737.9999934434891    Z    M 4889.9998787641525,263.9999816417694    C 4889.9998787641525,263.9999816417694 5099.00028192997,263.9999816417694 5099.00028192997,263.9999816417694    C 5099.00028192997,263.9999816417694 5401.00005710125,1060.9999635219574 5401.00005710125,1060.9999635219574    C 5401.00005710125,1060.9999635219574 5702.99983227253,263.9999816417694 5702.99983227253,263.9999816417694    C 5702.99983227253,263.9999816417694 5911.00009894371,263.9999816417694 5911.00009894371,263.9999816417694    C 5911.00009894371,263.9999816417694 5531.000038743019,1266.9999641180038 5531.000038743019,1266.9999641180038    C 5531.000038743019,1266.9999641180038 5269.999938964844,1266.9999641180038 5269.999938964844,1266.9999641180038    C 5269.999938964844,1266.9999641180038 4889.9998787641525,263.9999816417694 4889.9998787641525,263.9999816417694    Z    M 6161.999820590019,729.000016450882    C 6161.999820590019,729.000016450882 6798.000284910202,620.0000165700912 6798.000284910202,620.0000165700912    C 6781.887084364891,576.1294147968292 6756.7203541994095,536.273882985115 6724.000052452087,502.9999575614929    C 6686.94615483284,465.3193746805191 6641.292662262917,437.1171966791153 6591.000154733658,420.9999781847    C 6536.293132543564,403.46824610233307 6477.907265901566,400.8706440925598 6422.0002772808075,413.00000858306885    C 6376.4281969070435,422.8871899843216 6333.068554639816,442.62251937389374 6295.000211715698,470.9999896287918    C 6261.703116893768,495.819868683815 6232.236342549324,527.7934263944626 6208.9998215436935,565.9999755620956    C 6187.47295665741,601.3960294723511 6174.604895591736,635.6049662828445 6167.9996527433395,668.0000132322311    C 6164.429357886314,685.5141981840134 6162.434512376785,703.2075250148773 6161.999820590019,720.9999573230743    C 6161.999820590019,720.9999573230743 6161.999820590019,729.000016450882 6161.999820590019,729.000016450882    Z    M 6183.000219941139,857.9999850988388    C 6183.000219941139,857.9999850988388 6985.000152230263,722.9999721050262 6985.000152230263,722.9999721050262    C 6984.489475727081,705.9604549407959 6983.159249782562,688.986291885376 6981.000099658966,672.000042796135    C 6974.486137151718,620.7533793449402 6960.595242857933,570.556678891182 6939.999930858612,524.0000232458115    C 6905.553197145462,446.13185596466064 6853.746422767639,379.3412996530533 6790.999822854996,329.00001442432404    C 6724.650363206863,275.76810801029205 6648.206778049469,240.7907680273056 6569.000112295151,225.99996936321259    C 6504.694345474243,213.99191284179688 6438.032559037209,214.92871475219727 6373.00000333786,228.99999153614044    C 6307.608247160912,243.14888751506805 6244.449158787727,270.8208019733429 6187.999915599823,310.99997091293335    C 6089.698389291763,380.9687064886093 6022.579707741737,482.8266661167145 5991.000163555145,590.9999812841415    C 5966.226185560226,675.8593372106552 5963.506031394005,766.2031562328339 5981.999921917915,852.0000302791595    C 5993.263422608376,904.251983165741 6012.014871716499,953.4082103967667 6037.000028014183,998.0000350475311    C 6057.372319936752,1034.359390616417 6081.578386187553,1067.5434317588806 6108.999987483025,1096.9999610185623    C 6169.526748180389,1162.0185257196426 6246.375914096832,1210.8652609586716 6330.99969804287,1237.0000109672546    C 6408.56973195076,1260.9560519456863 6489.214679837227,1265.811504125595 6565.999702811241,1252.0000323057175    C 6634.358810186386,1239.70405960083 6702.439142465591,1211.9462895393372 6765.000221252441,1168.0000381469727    C 6809.902254581451,1136.4579966068268 6849.251482725143,1098.040076136589 6882.000402092934,1054.0000013113022    C 6882.000402092934,1054.0000013113022 6728.999748110771,967.9999923706055 6728.999748110771,967.9999923706055    C 6722.855347633362,974.2519633769989 6716.595489859581,980.1826249361038 6710.000115156174,986.0000358819962    C 6696.476809263229,997.9282350540161 6682.444307088852,1008.6220473051071 6667.999809861183,1018.0000038146973    C 6642.87057864666,1034.3154332637787 6618.628493666649,1045.987766623497 6594.999713897705,1054.0000013113022    C 6572.604452252388,1061.59423828125 6549.141950726509,1066.659181714058 6525.000027418137,1069.000022649765    C 6510.285143017769,1070.4268013238907 6494.409271359444,1070.7480212450027 6476.999889969826,1070.000030040741    C 6459.916157364845,1069.2660944461823 6444.383203744888,1067.6196185350418 6429.999889016151,1064.9999930858612    C 6410.5191839933395,1061.4521602392197 6391.4455399513245,1056.0995692014694 6373.00000333786,1048.9999643564224    C 6346.986092925072,1038.987267255783 6321.445853471756,1025.0449081659317 6296.999991297722,1007.0000120401382    C 6269.371158957481,986.6059490442276 6244.699316263199,961.7251026630402 6223.999895334244,933.0000022649765    C 6208.309051394463,911.2250875234604 6195.307770371437,887.736283659935 6185.153449177742,862.8617936372757    C 6184.764644265175,861.9101303815842 6184.380280017853,860.9560499191284 6183.999863028526,859.9999998807907    C 6183.999863028526,859.9999998807907 6183.000219941139,857.9999850988388 6183.000219941139,857.9999850988388    Z    M 7820.000148177147,273.9999660253525    C 7820.000148177147,273.9999660253525 7990.999805212021,273.9999660253525 7990.999805212021,273.9999660253525    C 7990.999805212021,273.9999660253525 7990.999805212021,1096.0000431537628 7990.999805212021,1096.0000431537628    C 7991.637780785561,1126.307160615921 7988.310735702515,1156.4863451719284 7980.999920487404,1185.999992132187    C 7973.789266943932,1215.1103236675262 7961.985485315323,1245.2392840385437 7943.999804258347,1277.0000380277634    C 7899.332139372826,1355.878866314888 7828.466029763222,1415.6957811117172 7752.999884366989,1451.9999885559082    C 7720.1453758478165,1467.8056559562683 7684.088160872459,1480.0097748041153 7644.999945163727,1487.9999860525131    C 7596.957374691963,1497.8208285570145 7548.102162480354,1500.1171749830246 7499.999889731407,1495.0000377893448    C 7450.574792146683,1489.7421654462814 7401.996874809265,1476.659168124199 7355.999970793724,1456.000018119812    C 7304.360954880714,1432.8066506385803 7263.035137295723,1404.3384008407593 7230.000041723251,1373.0000313520432    C 7212.4396777153015,1356.3418061733246 7196.426638841629,1338.3120399713516 7182.00039768219,1318.9999903440475    C 7182.00039768219,1318.9999903440475 7268.999937534332,1201.0000134706497 7268.999937534332,1201.0000134706497    C 7272.306259512901,1205.435050725937 7275.587911128998,1209.7016892433167 7278.999822258949,1214.0000200271606    C 7284.427302002907,1220.8378503322601 7290.671864151955,1228.4131077528 7295.000032544136,1232.9999814033508    C 7301.744416236877,1240.1474827528 7309.377919793129,1247.11476790905 7318.00021147728,1253.999957561493    C 7323.863369822502,1258.682624220848 7331.382896304131,1264.0000314712524 7339.00011742115,1268.9999788999557    C 7347.587870597839,1274.6377108097076 7356.226444721222,1279.852073431015 7363.999582529068,1284.0000002384186    C 7381.178049325943,1293.1670330762863 7396.870866894722,1299.6191846132278 7412.000213384628,1303.9999690055847    C 7417.617161512375,1305.6264805793762 7425.693744778633,1307.375463962555 7433.000119328499,1309.0000059604645    C 7445.785781383514,1311.842730641365 7461.144562244415,1315.5800904035568 7470.000235557556,1316.9999755620956    C 7485.978242516518,1319.5620356798172 7502.643565773964,1320.8999148607254 7520.000152587891,1321.0000051259995    C 7537.274340391159,1321.0996477603912 7555.219068646431,1319.7783309221268 7574.000122189522,1316.9999755620956    C 7592.246322274208,1314.3007613420486 7608.761649727821,1310.6635813713074 7624.000039219856,1305.9999837875366    C 7635.6237272024155,1302.442840218544 7647.291328430176,1298.1084303855896 7658.9998824596405,1292.9999772310257    C 7672.831074476242,1286.9662710428238 7685.137638092041,1280.6625539064407 7695.999998688698,1274.0000158548355    C 7707.985354185104,1266.6493796110153 7718.572393536568,1259.0298067331314 7727.999925851822,1251.0000249147415    C 7737.632715582848,1242.7953984737396 7746.649239659309,1233.7841411828995 7755.000157356262,1224.0000044107437    C 7762.017888665199,1215.7768460512161 7767.969860315323,1207.845722079277 7773.000147223473,1200.0000060796738    C 7779.174645543098,1190.369138121605 7784.121053218842,1181.1123105287552 7788.000221014023,1171.9999781847    C 7793.729665994644,1158.5395385026932 7797.774618625641,1144.4189327955246 7799.999885320663,1130.0000258684158    C 7801.382905840874,1121.0419471263885 7802.044071555138,1112.3911222219467 7802.0001583099365,1104.000012755394    C 7801.9705538749695,1098.4219052791595 7801.636517167091,1092.7548983097076 7801.0000218153,1086.9999766349792    C 7800.028502941132,1078.2236360311508 7798.35930621624,1069.5493552684784 7795.999832749367,1060.9999635219574    C 7795.999832749367,1060.9999635219574 7792.999916672707,1062.9999783039093 7792.999916672707,1062.9999783039093    C 7783.543766736984,1070.353479385376 7773.9963364601135,1077.2670488357544 7764.000398993492,1084.0000439882278    C 7754.754933953285,1090.227037191391 7744.881854891777,1096.5160720348358 7737.000167489052,1100.9999905824661    C 7717.518475651741,1112.0825254917145 7694.235574364662,1122.1142916679382 7666.999987602234,1131.0000332593918    C 7653.595592856407,1135.373566031456 7640.291359782219,1139.0336647033691 7626.999955296516,1142.0000250339508    C 7608.688625454903,1146.0868949890137 7591.680384159088,1148.7787680625916 7576.000395178795,1149.999994635582    C 7568.646160125732,1150.572783112526 7557.727551102638,1150.8798578977585 7548.000027179718,1151.000002026558    C 7533.593522310257,1151.1777114868164 7519.1381701231,1150.8788731098175 7506.999858379364,1149.999994635582    C 7499.807954311371,1149.4794894456863 7493.189389467239,1148.5590708255768 7485.9999524354935,1147.99997985363    C 7479.33846116066,1147.4818918704987 7473.363299369812,1146.993616104126 7466.999826073647,1145.9999650716782    C 7460.6422736644745,1145.0072988271713 7454.590633749962,1143.641129374504 7447.9996997118,1142.0000250339508    C 7439.849598765373,1139.9701980352402 7428.401070356369,1137.233382821083 7423.999877691269,1135.999980688095    C 7413.560860514641,1133.0741757154465 7403.327100753784,1129.772002696991 7393.000087022781,1125.999996304512    C 7379.550298810005,1121.0874264240265 7366.896869897842,1115.763662815094 7354.9998342990875,1109.9999675750732    C 7343.4541046619415,1104.406282544136 7332.460497736931,1098.4111621379852 7321.999770641327,1092.000013589859    C 7314.868555665016,1087.628898024559 7306.178667187691,1081.7778252363205 7297.999948620796,1075.9999848604202    C 7289.451668024063,1069.9609071016312 7280.36458671093,1063.2353426218033 7274.0001266002655,1058.000030875206    C 7264.424078702927,1050.1240550279617 7254.202654123306,1040.528818488121 7243.999979019165,1030.0000029802322    C 7235.385581851006,1021.1103222370148 7227.425442695618,1012.1591370105743 7220.000156998634,1002.9999824762344    C 7210.701403975487,991.5312316417694 7202.031745195389,979.527382850647 7194.000061988831,966.9999849796295    C 7185.7670686244965,954.1587083339691 7178.687661409378,941.7358770370483 7173.00015604496,929.9999800920486    C 7168.909809947014,921.5600788593292 7164.830812215805,911.9867762327194 7160.99999833107,902.0000417232513    C 7155.881884932518,888.6562546491623 7151.547795653343,875.3203458786011 7147.999704122543,862.0000146627426    C 7142.07437646389,839.7485520839691 7138.512962937355,819.7719496488571 7137.000176310539,801.0000114440918    C 7136.2724006175995,791.969237446785 7135.940830945969,783.0229761600494 7136.000039815903,773.999990940094    C 7136.000039815903,773.999990940094 7136.000039815903,273.9999660253525 7136.000039815903,273.9999660253525    C 7136.000039815903,273.9999660253525 7306.999696850777,273.9999660253525 7306.999696850777,273.9999660253525    C 7306.999696850777,273.9999660253525 7306.999696850777,758.9999696016312 7306.999696850777,758.9999696016312    C 7306.404647707939,769.7173272371292 7306.7367107868195,780.3979791402817 7307.999833345413,791.0000270605087    C 7308.903755426407,798.5879076719284 7310.237435221672,805.9209072589874 7311.99988591671,813.0000106096268    C 7314.333208799362,822.3696411848068 7317.630649447441,831.9633557796478 7321.999770641327,841.9999563694    C 7327.847139954567,855.4306733608246 7334.909277915955,867.8100844621658 7343.000169992447,878.9999612569809    C 7351.64762544632,890.9604793787003 7363.098127484322,903.3183146715164 7378.000013232231,915.9999661445618    C 7392.402570843697,928.2568159103394 7408.976120352745,939.3174169063568 7427.999930262566,949.0000309944153    C 7443.6488345861435,956.9653539657593 7460.869240999222,963.6474982500076 7480.000120282173,968.9999997615814    C 7495.297225236893,973.2797986268997 7514.632868528366,976.6425808668137 7535.000226378441,978.9999841451645    C 7546.795126676559,980.3652583360672 7557.701400518417,981.0664273500443 7568.0002900362015,980.9999989271164    C 7574.834473848343,980.9560415744781 7581.788555622101,980.6211241483688 7588.999702572823,979.9999915361404    C 7594.446425199509,979.5307848453522 7600.150213003159,978.8511021137238 7606.000049352646,977.9999767541885    C 7616.94530236721,976.4072165489197 7627.2989600896835,974.4097084999084 7637.000333428383,972.0000219345093    C 7653.202840685844,967.9751040935516 7668.922795653343,962.6103374958038 7684.000334382057,955.9999932050705    C 7704.582324385643,946.9761127233505 7721.65125477314,937.0951981544495 7734.999894499779,926.9999579191208    C 7742.89441049099,921.0298153162003 7750.561465740204,914.3632485866547 7757.999580025673,906.9999891519547    C 7771.059576511383,894.072230219841 7782.0452889204025,880.3476883172989 7790.9996436834335,866.0000442266464    C 7797.416898369789,855.7182314395905 7802.354424715042,846.1416163444519 7806.000210881233,837.0000089406967    C 7809.088446855545,829.2563527822495 7811.730149269104,820.6635408401489 7813.999822616577,810.9999958276749    C 7816.289232254028,801.2543553113937 7817.951027870178,790.1020795106888 7819.00001168251,778.0000205039978    C 7819.775154471397,769.0498200654984 7820.108204364777,760.0566470623016 7820.000148177147,751    C 7820.000148177147,751 7820.000148177147,273.9999660253525 7820.000148177147,273.9999660253525    Z    M 8018.000036716461,225.99996936321259    C 8018.000036716461,225.99996936321259 8018.000036716461,55.99996626377106 8018.000036716461,55.99996626377106    C 8018.000036716461,55.99996626377106 7976.999867916107,55.99996626377106 7976.999867916107,55.99996626377106    C 7976.999867916107,55.99996626377106 7976.999867916107,47.99999666213989 7976.999867916107,47.99999666213989    C 7976.999867916107,47.99999666213989 8067.999953746796,47.99999666213989 8067.999953746796,47.99999666213989    C 8067.999953746796,47.99999666213989 8067.999953746796,55.99996626377106 8067.999953746796,55.99996626377106    C 8067.999953746796,55.99996626377106 8027.000278353691,55.99996626377106 8027.000278353691,55.99996626377106    C 8027.000278353691,55.99996626377106 8027.000278353691,225.99996936321259 8027.000278353691,225.99996936321259    C 8027.000278353691,225.99996936321259 8018.000036716461,225.99996936321259 8018.000036716461,225.99996936321259    Z    M 8092.000269174576,225.99996936321259    C 8092.000269174576,225.99996936321259 8092.000269174576,47.99999666213989 8092.000269174576,47.99999666213989    C 8092.000269174576,47.99999666213989 8105.000069975853,47.99999666213989 8105.000069975853,47.99999666213989    C 8105.000069975853,47.99999666213989 8183.999998092651,211.0000375509262 8183.999998092651,211.0000375509262    C 8183.999998092651,211.0000375509262 8264.000062704086,47.99999666213989 8264.000062704086,47.99999666213989    C 8264.000062704086,47.99999666213989 8276.000220417976,47.99999666213989 8276.000220417976,47.99999666213989    C 8276.000220417976,47.99999666213989 8276.000220417976,225.99996936321259 8276.000220417976,225.99996936321259    C 8276.000220417976,225.99996936321259 8266.999978780746,225.99996936321259 8266.999978780746,225.99996936321259    C 8266.999978780746,225.99996936321259 8266.999978780746,63.00001800060272 8266.999978780746,63.00001800060272    C 8266.999978780746,63.00001800060272 8183.999998092651,228.99999153614044 8183.999998092651,228.99999153614044    C 8183.999998092651,228.99999153614044 8102.000153899193,59.999995827674866 8102.000153899193,59.999995827674866    C 8102.000153899193,59.999995827674866 8102.000153899193,225.99996936321259 8102.000153899193,225.99996936321259    C 8102.000153899193,225.99996936321259 8092.000269174576,225.99996936321259 8092.000269174576,225.99996936321259    Z"></path></svg>